<svg width="452.373" height="452.373" xmlns="http://www.w3.org/2000/svg">

 <g>
  <title>background</title>
  <rect fill="none" id="canvas_background" height="458.183" width="458.183" y="-1" x="-1"/>
 </g>
 <g>
  <title>Layer 1</title>
  <path id="svg_3" fill="#7e5faf" d="m166.380005,313.346985l10.031998,0c6.628006,0 12,5.372986 12,12l0,37.014008l75.548996,0l0,-37.014008c0,-6.627014 5.373016,-12 12,-12l10.03302,0l-59.807007,-43.820007l-59.807007,43.820007z"/>
  <path id="svg_4" fill="#331e54" d="m349.127014,173.867996c-1.222992,0 -2.447998,0.022995 -3.673004,0.065994c-6.006989,-60.508995 -57.203003,-107.92099 -119.266998,-107.92099c-62.062988,0 -113.259995,47.412994 -119.266998,107.921997c-1.225998,-0.044006 -2.451996,-0.065994 -3.674995,-0.065994c-56.929016,-0.001007 -103.245018,46.315994 -103.245018,103.24501c0,56.931 46.316002,103.245972 103.246002,103.245972c6.627998,0 12,-5.372009 12,-12c0,-6.627014 -5.372002,-12 -12,-12c-43.695004,0 -79.246002,-35.548981 -79.246002,-79.245972s35.550999,-79.246002 79.246002,-79.246002c4.373001,0 8.791,0.365997 13.135002,1.087997c3.506996,0.583008 7.093994,-0.419998 9.790001,-2.737991c2.695999,-2.318008 4.225998,-5.713013 4.175995,-9.269012l-0.007004,-0.432999c-0.003998,-0.215988 -0.007996,-0.431992 -0.007996,-0.649002c0,-52.853989 43,-95.854996 95.856003,-95.854996c52.854996,0 95.854996,43.000992 95.854996,95.854996c0,0.20401 -0.003998,0.407013 -0.006989,0.610001l-0.006989,0.499008c-0.042999,3.552002 1.491974,6.938995 4.187988,9.250992c2.696991,2.311005 6.274994,3.311005 9.78299,2.727005c4.330017,-0.720993 8.746002,-1.087006 13.127014,-1.087006c43.696991,0 79.246002,35.550003 79.246002,79.246002s-35.549011,79.246002 -79.246002,79.246002c-6.627014,0 -12,5.373016 -12,12c0,6.628021 5.372986,12 12,12c56.931,0 103.246002,-46.315002 103.246002,-103.246002c-0.000031,-56.928009 -46.315002,-103.24501 -103.246002,-103.24501z"/>
  <path id="svg_5" fill="#331e54" d="m168.882996,181.606995c0,-28.449997 23.145004,-51.595993 51.595993,-51.595993c6.628006,0 12,-5.372009 12,-12.000008c0,-6.626999 -5.371994,-12 -12,-12c-41.68399,0 -75.595993,33.911995 -75.595993,75.596001c0,6.628006 5.371994,12 12,12c6.626999,0 12,-5.371994 12,-12z"/>
  <path id="svg_6" fill="#331e54" d="m329.328003,315.346008l-96.049011,-70.375992c-4.222,-3.094009 -9.962997,-3.094009 -14.184998,0l-96.487991,70.696976c-4.187004,3.067017 -5.928001,8.478027 -4.313004,13.411011c1.613998,4.933014 6.216003,8.269012 11.406006,8.269012l34.712997,0l0,37.014008c0,6.627991 5.373001,12 12,12l99.548996,0c6.628021,0 12,-5.372009 12,-12l0,-37.014008l34.714996,0c0.006012,0 0.013,0 0.02002,0c6.626984,0 12,-5.372009 12,-12c-0.001007,-4.175018 -2.132019,-7.85202 -5.368011,-10.001007zm-53.367004,-1.999023c-6.627014,0 -12,5.372986 -12,12l0,37.014008l-75.548996,0l0,-37.014008c0,-6.627014 -5.372009,-12 -12,-12l-10.031998,0l59.807999,-43.820007l59.806992,43.820007l-10.033997,0z"/>
  <g id="svg_7"/>
  <g id="svg_8"/>
  <g id="svg_9"/>
  <g id="svg_10"/>
  <g id="svg_11"/>
  <g id="svg_12"/>
  <g id="svg_13"/>
  <g id="svg_14"/>
  <g id="svg_15"/>
  <g id="svg_16"/>
  <g id="svg_17"/>
  <g id="svg_18"/>
  <g id="svg_19"/>
  <g id="svg_20"/>
  <g id="svg_21"/>
 </g>
</svg>