<svg width="456.183" height="456.183" xmlns="http://www.w3.org/2000/svg">

 <g>
  <title>background</title>
  <rect fill="none" id="canvas_background" height="458.183" width="458.183" y="-1" x="-1"/>
 </g>
 <g>
  <title>Layer 1</title>
  <path stroke="#331e54" id="svg_3" fill="none" d="m352.531006,232.056l0,-191.353001l-294.606007,0l0,187.375004c0,1.735992 -0.376999,3.453003 -1.105,5.028992l-17.672001,38.291016l63.052998,-37.645004c1.858002,-1.111008 3.983002,-1.697006 6.149002,-1.697006l244.181007,0zm-255.842003,-147.318001l220.847008,0c6.627991,0 12,5.373001 12,12c0,6.626999 -5.372009,12 -12,12l-220.847008,0c-6.626999,0 -12,-5.373001 -12,-12c0,-6.626999 5.372993,-12 12,-12zm0,89.676003c-6.626999,0 -12,-5.373001 -12,-12c0,-6.628998 5.373001,-12 12,-12l146.468987,0c6.627014,0 12,5.371002 12,12c0,6.626999 -5.372986,12 -12,12l-146.468987,0z"/>
  <path id="svg_4" fill="#846faa" d="m399.109009,355.824005l0,-182.367004l-22.578003,0l0,59.334c0,12.828003 -10.437988,23.266006 -23.265991,23.266006l-240.763016,0l0,103.346008l237.748001,0c2.165985,0 4.290985,0.587982 6.149994,1.696991l60.63501,36.199005l-16.820007,-36.445007c-0.729004,-1.57901 -1.105988,-3.294006 -1.105988,-5.029999zm-105.602997,-42.953003l-146.469009,0c-6.626999,0 -12,-5.372986 -12,-12c0,-6.627014 5.373001,-12 12,-12l146.469009,0c6.626984,0 12,5.372986 12,12c0,6.626984 -5.373016,12 -12,12z"/>
  <path id="svg_5" fill="#331e54" d="m455.078003,422.450989l-31.968994,-69.264008l0,-180.747986c0,-12.673996 -10.309021,-22.981995 -22.981018,-22.981995l-23.596985,0l0,-109.489002c0,-12.828001 -10.438019,-23.266001 -23.265991,-23.266001l-296.076015,0c-12.827999,0 -23.264999,10.438 -23.264999,23.266001l0,185.47501l-32.819,71.108994c-2.205,4.777008 -1.041,10.43399 2.87,13.950989c2.261,2.03302 5.134,3.078003 8.028,3.078003c2.113999,0 4.240999,-0.55899 6.147999,-1.696991l70.35,-42l0,90.536987c0,12.672028 10.308998,22.980011 22.981003,22.980011l235.455986,0l91.09201,54.382996c1.906982,1.139008 4.03299,1.695007 6.14801,1.695007c2.894989,0 5.766998,-1.045013 8.026978,-3.078003c3.914001,-3.516998 5.077026,-9.173004 2.873016,-13.950012zm-98.678009,-61.35199c-1.859009,-1.109009 -3.984009,-1.696991 -6.149994,-1.696991l-237.748001,0l0,-103.346008l240.763992,0c12.828003,0 23.266022,-10.438004 23.266022,-23.266006l0,-59.334l22.578003,0l0,182.367004c0,1.735992 0.376984,3.451019 1.10498,5.028992l16.820007,36.445007l-60.63501,-36.197998zm-317.251995,-89.700989l17.672001,-38.291c0.728001,-1.576004 1.105,-3.292999 1.105,-5.029007l0,-187.375004l294.605976,0l0,191.353001l-244.180977,0c-2.166,0 -4.291,0.585999 -6.149002,1.696991l-63.052998,37.64502z"/>
  <path id="svg_6" fill="#331e54" d="m96.689003,108.737999l220.847008,0c6.627991,0 12,-5.373001 12,-12c0,-6.626999 -5.372009,-12 -12,-12l-220.847008,0c-6.626999,0 -12,5.373001 -12,12c0,6.626999 5.372993,12 12,12z"/>
  <path id="svg_7" fill="#331e54" d="m255.158005,162.414001c0,-6.628998 -5.373001,-12 -12,-12l-146.469002,0c-6.626999,0 -12,5.371002 -12,12c0,6.626999 5.373001,12 12,12l146.468987,0c6.627014,0 12.000015,-5.373001 12.000015,-12z"/>
  <path id="svg_8" fill="#331e54" d="m293.506012,288.871002l-146.469009,0c-6.626999,0 -12,5.372986 -12,12c0,6.627014 5.373001,12 12,12l146.469009,0c6.626984,0 12,-5.372986 12,-12c0,-6.627014 -5.373016,-12 -12,-12z"/>
  <g id="svg_9"/>
  <g id="svg_10"/>
  <g id="svg_11"/>
  <g id="svg_12"/>
  <g id="svg_13"/>
  <g id="svg_14"/>
  <g id="svg_15"/>
  <g id="svg_16"/>
  <g id="svg_17"/>
  <g id="svg_18"/>
  <g id="svg_19"/>
  <g id="svg_20"/>
  <g id="svg_21"/>
  <g id="svg_22"/>
  <g id="svg_23"/>
 </g>
</svg>