<svg width="244.002" height="164.621" xmlns="http://www.w3.org/2000/svg">

 <g>
  <title>background</title>
  <rect fill="none" id="canvas_background" height="166.621" width="246.002" y="-1" x="-1"/>
 </g>
 <g>
  <title>Layer 1</title>
  <polygon id="svg_4" points="211.97100830078125,45.42300033569336 211.97100830078125,106.05699920654297 198.125,110.9020004272461 198.125,40.5989990234375 156.57501220703125,26.095001220703125 156.57501220703125,125.40599822998047 142.72299194335938,130.2310028076172 142.72299194335938,21.248001098632812 121.95399475097656,14 101.17900085449219,21.248001098632812 101.17900085449219,130.2310028076172 87.33399963378906,125.40599822998047 87.33399963378906,26.095001220703125 45.78300476074219,40.5989990234375 45.78300476074219,110.9020004272461 31.938003540039062,106.05699920654297 31.938003540039062,45.42300033569336 18.0780029296875,50.27000045776367 18.0780029296875,115.9010009765625 59.63600158691406,130.40499877929688 59.63600158691406,50.42900085449219 73.48800659179688,45.59700012207031 73.48800659179688,135.23699951171875 115.031005859375,149.7480010986328 115.031005859375,31.093000411987305 121.95399475097656,28.670000076293945 128.87701416015625,31.093000411987305 128.87701416015625,149.7480010986328 170.43499755859375,135.23699951171875 170.43499755859375,45.59700012207031 184.27999877929688,50.42900085449219 184.27999877929688,130.40499877929688 225.82998657226562,115.9010009765625 225.82998657226562,50.27000045776367 " fill="#FF0000"/>
 </g>
</svg>