<svg width="442.75" height="442.75" xmlns="http://www.w3.org/2000/svg">

 <g>
  <title>background</title>
  <rect fill="none" id="canvas_background" height="458.183" width="458.183" y="-1" x="-1"/>
 </g>
 <g>
  <title>Layer 1</title>
  <path id="svg_2" fill="#331e54" d="m323.526001,79.740997c-0.730011,-3.098 -2.661987,-5.778 -5.368988,-7.452003c-2.707001,-1.672997 -5.969025,-2.201996 -9.06601,-1.472l-299.847003,70.743004c-3.098001,0.729996 -5.777,2.662003 -7.451,5.369003c-1.674,2.707001 -2.203,5.968994 -1.473,9.065994l48.84,207.011017c1.304001,5.52298 6.230999,9.246979 11.670002,9.246979c0.911999,0 1.838997,-0.10498 2.765999,-0.322998l299.846016,-70.740997c3.097992,-0.730988 5.776978,-2.661987 7.450989,-5.368988c1.674011,-2.707001 2.203003,-5.968994 1.472992,-9.06601l-48.839996,-207.013zm1.492004,110.848007l-51.36499,-29.835999l32.819,-48.774002l18.54599,78.610001zm-295.033005,-13.380005l51.161003,28.962006l-32.614002,49.647995l-18.547001,-78.610001zm14.582001,-19.324005l240.223007,-56.674995l-93.882004,139.517998l-146.341003,-82.843002zm25.196999,187.930008l-13.645,-57.832001l45.958996,-69.962997l86.674004,49.064987c1.862,1.055023 3.895004,1.559021 5.902008,1.559021c3.875,0 7.660004,-1.877014 9.964996,-5.302002l55.603989,-82.634018l72.383026,42.044006l13.643982,57.832016l-276.486,65.230988z"/>
  <path id="svg_3" fill="#331e54" d="m430.75,78.552002l-75.393005,0c-6.627991,0 -12,5.373001 -12,12c0,6.626999 5.372009,12 12,12l75.393005,0c6.627991,0 12,-5.373001 12,-12c0,-6.626999 -5.372009,-12 -12,-12z"/>
  <path id="svg_4" fill="#331e54" d="m418.07901,139.669998l-50.050995,0c-6.627991,0 -12,5.373001 -12,12c0,6.626999 5.372009,12 12,12l50.050995,0c6.627991,0 12,-5.373001 12,-12c0,-6.626999 -5.372009,-12 -12,-12z"/>
  <path id="svg_5" fill="#331e54" d="m406.066986,200.787994l-26.024994,0c-6.627991,0 -12,5.373001 -12,12c0,6.626999 5.372009,12 12,12l26.024994,0c6.627991,0 12,-5.373001 12,-12c0,-6.626999 -5.371979,-12 -12,-12z"/>
  <g id="svg_6"/>
  <g id="svg_7"/>
  <g id="svg_8"/>
  <g id="svg_9"/>
  <g id="svg_10"/>
  <g id="svg_11"/>
  <g id="svg_12"/>
  <g id="svg_13"/>
  <g id="svg_14"/>
  <g id="svg_15"/>
  <g id="svg_16"/>
  <g id="svg_17"/>
  <g id="svg_18"/>
  <g id="svg_19"/>
  <g id="svg_20"/>
 </g>
</svg>