<svg width="409.255" height="409.255" xmlns="http://www.w3.org/2000/svg">

 <g>
  <title>background</title>
  <rect fill="none" id="canvas_background" height="458.183" width="458.183" y="-1" x="-1"/>
 </g>
 <g>
  <title>Layer 1</title>
  <path stroke="#331e54" id="svg_3" fill="none" d="m70.897003,222.906998c-9.891998,12.151001 -18.530003,24.270996 -25.691998,36.145004c-21.305006,35.313995 -26.945005,64.181 -15.473005,79.196991c11.471998,15.015991 40.803003,17.165985 80.480005,5.894989c22.279999,-6.328979 46.302002,-16.432983 70.841995,-29.642975c-13.185989,-8.483002 -26.335999,-17.710022 -39.281998,-27.601013c-26.420006,-20.181 -50.407005,-41.903 -70.875,-63.992996z"/>
  <path stroke="#331e54" id="svg_4" fill="none" d="m322.524994,204.647995c-19.889008,-21.718002 -43.48999,-43.188995 -69.650009,-63.175995c-15.774994,-12.052002 -32.022995,-23.175003 -48.300995,-33.111008c-15.750992,9.621002 -31.917999,20.649002 -48.231995,33.111008c-26.162003,19.987 -49.764999,41.459991 -69.653,63.179993c19.889,21.719009 43.490997,43.192001 69.653,63.180008c16.326004,12.471985 32.503998,23.501984 48.265991,33.126984c16.146011,-9.867981 32.347,-20.966003 48.266006,-33.126984c26.162018,-19.988007 49.709015,-41.382996 69.651001,-63.184006zm-117.916992,53.768997c-29.647003,0 -53.766998,-24.119003 -53.766998,-53.766998c0,-29.645996 24.119003,-53.766998 53.766998,-53.766998c29.647003,0 53.766998,24.119995 53.766998,53.766998c0,29.64801 -24.119995,53.766998 -53.766998,53.766998z"/>
  <path stroke="#331e54" id="svg_5" fill="none" d="m338.325989,222.916c-20.5,22.141998 -44.442017,43.787003 -70.882996,63.985001c-12.937012,9.88501 -26.07901,19.105011 -39.257004,27.584015c45.830002,24.619995 86.654007,36.641998 115.077988,36.642975c17.08902,0.002014 29.692017,-4.335999 36.219025,-12.878998c11.472992,-15.016998 5.832977,-43.882996 -15.472015,-79.196991c-7.16098,-11.869995 -15.79599,-23.987 -25.684998,-36.136002z"/>
  <path id="svg_6" fill="#8a70b5" d="m204.608002,174.884003c-16.412994,0 -29.766998,13.354004 -29.766998,29.766998c0,16.41301 13.354004,29.766998 29.766998,29.766998s29.766998,-13.353989 29.766998,-29.766998c0,-16.412994 -13.354004,-29.766998 -29.766998,-29.766998z"/>
  <path id="svg_7" fill="#331e54" d="m204.608002,150.884003c-29.647003,0 -53.766998,24.119995 -53.766998,53.766998c0,29.647003 24.119003,53.766998 53.766998,53.766998c29.647003,0 53.766998,-24.119003 53.766998,-53.766998c0,-29.647003 -24.119995,-53.766998 -53.766998,-53.766998zm0,83.533005c-16.412994,0 -29.766998,-13.354004 -29.766998,-29.766998c0,-16.41301 13.354004,-29.766998 29.766998,-29.766998s29.766998,13.353989 29.766998,29.766998c0,16.413986 -13.354004,29.766998 -29.766998,29.766998z"/>
  <path id="svg_8" fill="#331e54" d="m354.354004,204.649994c6.09201,-7.339005 11.790009,-14.703003 17.049988,-22.059998c3.165009,-4.431 6.184021,-8.878006 8.972015,-13.222c3.579987,-5.576996 1.960999,-13.001007 -3.617004,-16.580002c-5.578003,-3.582001 -13.001007,-1.960999 -16.579987,3.615997c-2.572998,4.009003 -5.366028,8.124008 -8.300018,12.229996c-4.22699,5.912003 -8.761993,11.835007 -13.571991,17.748001c-20.464996,-22.085999 -44.447998,-43.802994 -70.860992,-63.980995c-12.854004,-9.819 -26.02301,-19.052002 -39.289017,-27.577995c73.397995,-39.438004 133.943008,-46.526005 151.327011,-23.770004c3.826996,5.011002 5.769989,11.627998 5.772003,19.672005c0.002991,6.625999 5.373993,11.994995 12,11.994995l0.004974,0c6.627014,-0.001999 11.998016,-5.376999 11.995026,-12.003998c-0.005005,-13.427002 -3.605011,-24.944 -10.700012,-34.231998c-18.037994,-23.609001 -55.722992,-28.726999 -106.109009,-14.411999c-27.60498,7.841999 -57.572998,21.007 -87.871994,38.405998c-13.393005,-7.688004 -26.753006,-14.583 -39.854996,-20.528999c-6.032013,-2.737003 -13.146011,-0.068001 -15.887009,5.967995c-2.737991,6.035004 -0.065994,13.147003 5.969009,15.887001c8.634995,3.919006 17.394989,8.284004 26.207001,13.026001c-13.171005,8.476006 -26.305008,17.692001 -39.236008,27.570999c-26.418999,20.183006 -50.405998,41.905006 -70.875,63.995995c-9.892998,-12.151001 -18.529999,-24.272995 -25.693001,-36.145996c-21.304001,-35.313995 -26.943001,-64.181999 -15.469999,-79.197998c8.590998,-11.245998 27.832998,-15.373997 54.180998,-11.617996c6.555,0.933998 12.638,-3.627003 13.571999,-10.188c0.935005,-6.561001 -3.625999,-12.638 -10.187996,-13.572002c-45.265999,-6.451 -66.665003,7.754002 -76.637002,20.809002c-18.037993,23.607006 -13.068993,61.310001 13.990006,106.163998c8.339001,13.822006 18.507,27.923004 30.205997,42.003998c-11.697998,14.082001 -21.866997,28.182007 -30.204998,42.003998c-27.059,44.854019 -32.028,82.556992 -13.993,106.16301c11.333,14.834991 30.422001,22.368988 55.548,22.368011c14.860001,0 31.834,-2.636017 50.562004,-7.955017c27.594002,-7.839996 57.549995,-20.997986 87.836998,-38.389008c30.287994,17.391022 60.243988,30.549011 87.838989,38.389008c18.729004,5.320007 35.697998,7.955994 50.561005,7.955017c25.122009,0 44.214996,-7.535004 55.546997,-22.367004c18.036011,-23.606995 13.06601,-61.309998 -13.992004,-106.164017c-8.339996,-13.82399 -18.509003,-27.923996 -30.208984,-42.005997zm-244.143005,139.494995c-39.677002,11.270996 -69.008003,9.119995 -80.480003,-5.894989c-11.472,-15.016998 -5.832001,-43.882996 15.473,-79.197021c7.161999,-11.872986 15.799999,-23.992981 25.692001,-36.144989c20.468002,22.089996 44.455002,43.812012 70.873993,63.993988c12.945999,9.891022 26.096008,19.117004 39.282013,27.601013c-24.539001,13.209015 -48.559998,23.313019 -70.841003,29.641998zm46.130005,-76.313995c-26.162003,-19.987 -49.764999,-41.460999 -69.653,-63.180008c19.889,-21.719986 43.490997,-43.192001 69.653,-63.179993c16.313995,-12.462997 32.481003,-23.489998 48.231995,-33.111c16.278,9.936996 32.525009,21.060005 48.30101,33.111c26.159988,19.985992 49.762009,41.457993 69.649979,63.175995c-19.941986,21.802002 -43.488983,43.195999 -69.651978,63.184006c-15.919006,12.161011 -32.12001,23.259003 -48.266006,33.126984c-15.761002,-9.624969 -31.938995,-20.654968 -48.264999,-33.126984zm223.141998,70.417999c-6.526001,8.542999 -19.130005,12.881012 -36.218994,12.878998c-28.424011,-0.001007 -69.248016,-12.022003 -115.078018,-36.643005c13.178009,-8.479004 26.319,-17.699005 39.257004,-27.583984c26.44101,-20.197998 50.382996,-41.844009 70.882996,-63.985016c9.890015,12.14801 18.525024,24.266006 25.686005,36.136017c21.304016,35.313995 26.944,64.181 15.471008,79.196991z"/>
  <path id="svg_9" fill="#331e54" d="m122.443001,68.017998c3.160004,0 6.250008,-1.279999 8.480003,-3.519997c2.23999,-2.230003 3.519989,-5.319004 3.519989,-8.480003c0,-3.16 -1.278992,-6.259998 -3.519989,-8.488998c-2.230011,-2.23 -5.320007,-3.511002 -8.480003,-3.511002c-3.159996,0 -6.25,1.279999 -8.488998,3.511002c-2.230003,2.238998 -3.511002,5.328999 -3.511002,8.488998c0,3.16 1.279999,6.25 3.511002,8.480003c2.238998,2.239998 5.328995,3.519997 8.488998,3.519997z"/>
  <path id="svg_10" fill="#331e54" d="m386.822998,116.388c-3.158997,0 -6.25,1.278999 -8.489014,3.510002c-2.22998,2.239998 -3.510986,5.329994 -3.510986,8.489998c0,3.160004 1.279999,6.25 3.510986,8.479996c2.239014,2.238998 5.330017,3.520004 8.489014,3.520004c3.160004,0 6.25,-1.279999 8.480011,-3.520004c2.23999,-2.229996 3.519989,-5.319992 3.519989,-8.479996c0,-3.160004 -1.278992,-6.25 -3.519989,-8.489998c-2.230011,-2.231003 -5.320007,-3.510002 -8.480011,-3.510002z"/>
  <g id="svg_11"/>
  <g id="svg_12"/>
  <g id="svg_13"/>
  <g id="svg_14"/>
  <g id="svg_15"/>
  <g id="svg_16"/>
  <g id="svg_17"/>
  <g id="svg_18"/>
  <g id="svg_19"/>
  <g id="svg_20"/>
  <g id="svg_21"/>
  <g id="svg_22"/>
  <g id="svg_23"/>
  <g id="svg_24"/>
  <g id="svg_25"/>
 </g>
</svg>